<?xml version="1.0" standalone="no"?>
<!DOCTYPE svg PUBLIC "-//W3C//DTD SVG 20010904//EN"
 "http://www.w3.org/TR/2001/REC-SVG-20010904/DTD/svg10.dtd">
<svg version="1.0" xmlns="http://www.w3.org/2000/svg"
 width="511.000000pt" height="275.000000pt" viewBox="0 0 511.000000 275.000000"
 preserveAspectRatio="xMidYMid meet">

<g transform="translate(0.000000,275.000000) scale(0.100000,-0.100000)"
fill="#000000" stroke="none">
<path d="M3760 1635 c-1162 -1162 -1109 -1114 -1211 -1102 -27 3 -63 13 -81
22 -18 10 -511 495 -1096 1078 l-1062 1062 -150 -150 -150 -150 1087 -1086
1088 -1087 85 -41 c222 -108 475 -90 672 48 60 41 2162 2147 2166 2168 2 12
-48 68 -140 160 l-143 143 -1065 -1065z"/>
</g>
</svg>
