<?xml version="1.0" standalone="no"?>
<!DOCTYPE svg PUBLIC "-//W3C//DTD SVG 20010904//EN"
 "http://www.w3.org/TR/2001/REC-SVG-20010904/DTD/svg10.dtd">
<svg version="1.0" xmlns="http://www.w3.org/2000/svg"
 width="980.000000pt" height="626.000000pt" viewBox="0 0 980.000000 626.000000"
 preserveAspectRatio="xMidYMid meet">
<metadata>
Created by potrace 1.16, written by Peter Selinger 2001-2019
</metadata>
<g transform="translate(0.000000,626.000000) scale(0.100000,-0.100000)"
fill="#000000" stroke="none">
<path d="M9530 6229 c-283 -30 -1084 -106 -1365 -130 -143 -11 -264 -25 -269
-30 -16 -14 21 -57 279 -324 139 -143 278 -289 309 -324 l56 -63 -49 -57
c-134 -154 -2756 -2791 -2776 -2791 -6 0 -411 401 -900 890 l-890 890 -1962
-1962 -1963 -1963 177 -177 178 -178 1775 1775 c976 976 1780 1775 1785 1775
5 0 410 -400 900 -890 l890 -890 1610 1610 1609 1609 342 -339 c189 -187 347
-340 353 -340 5 0 12 28 15 63 4 34 36 384 71 777 36 393 72 792 82 886 9 95
13 179 10 188 -8 20 -36 20 -267 -5z"/>
</g>
</svg>
